<?xml version="1.0" encoding="UTF-8" standalone="no"?>
<svg
   width="21.59cm"
   height="27.940001cm"
   viewBox="140 9 413.80834 545.82787"
   version="1.1"
   id="svg73"
   sodipodi:docname="countVisitsAll.svg"
   inkscape:version="1.2 (1:1.2+202206011326+fc4e4096c5)"
   xmlns:inkscape="http://www.inkscape.org/namespaces/inkscape"
   xmlns:sodipodi="http://sodipodi.sourceforge.net/DTD/sodipodi-0.dtd"
   xmlns="http://www.w3.org/2000/svg"
   xmlns:svg="http://www.w3.org/2000/svg">
  <defs
     id="defs77" />
  <sodipodi:namedview
     id="namedview75"
     pagecolor="#ffffff"
     bordercolor="#666666"
     borderopacity="1.0"
     inkscape:showpageshadow="2"
     inkscape:pageopacity="0.0"
     inkscape:pagecheckerboard="0"
     inkscape:deskcolor="#d1d1d1"
     inkscape:document-units="cm"
     showgrid="false"
     inkscape:zoom="0.22300595"
     inkscape:cx="112.10463"
     inkscape:cy="531.37595"
     inkscape:window-width="1920"
     inkscape:window-height="1011"
     inkscape:window-x="0"
     inkscape:window-y="0"
     inkscape:window-maximized="1"
     inkscape:current-layer="svg73" />
  <g
     id="Fondo"
     transform="matrix(0.93153757,0,0,0.93153757,162.92515,19.220339)">
    <g
       id="g8">
      <path
         style="fill:#ffffff;fill-opacity:1;stroke:#000000;stroke-width:2;stroke-opacity:1"
         fill-rule="evenodd"
         d="m 174.471,11 h 46.05 c 6.359,0 11.513,4.9249 11.513,11 0,6.0751 -5.154,11 -11.513,11 h -46.05 c -6.358,0 -11.512,-4.9249 -11.512,-11 0,-6.0751 5.154,-11 11.512,-11 z"
         id="path2" />
      <text
         font-size="12.8px"
         style="font-style:normal;font-weight:normal;font-family:sans-serif;text-anchor:middle;fill:#000000;fill-opacity:1;stroke:none"
         x="197.496"
         y="25.8813"
         id="text6"><tspan
           x="197.496"
           y="25.8813"
           id="tspan4">INICIO</tspan></text>
    </g>
    <g
       id="g16">
      <path
         style="fill:#ffffff;fill-opacity:1;stroke:#000000;stroke-width:2;stroke-opacity:1"
         fill-rule="evenodd"
         d="m 184.121,531 h 26.751 c 3.693,0 6.687,4.925 6.687,11 0,6.075 -2.994,11 -6.687,11 h -26.751 c -3.693,0 -6.687,-4.925 -6.687,-11 0,-6.075 2.994,-11 6.687,-11 z"
         id="path10" />
      <text
         font-size="12.8px"
         style="font-style:normal;font-weight:normal;font-family:sans-serif;text-anchor:middle;fill:#000000;fill-opacity:1;stroke:none"
         x="197.49699"
         y="545.88098"
         id="text14"><tspan
           x="197.49699"
           y="545.88098"
           id="tspan12">FIN</tspan></text>
    </g>
    <g
       id="g24">
      <polygon
         style="fill:#ffffff;fill-opacity:1;stroke:#000000;stroke-width:2;stroke-opacity:1"
         fill-rule="evenodd"
         points="229.654,151 150.78,151 165.339,111 244.213,111 "
         id="polygon18" />
      <text
         font-size="12.8px"
         style="font-style:normal;font-weight:normal;font-family:sans-serif;text-anchor:middle;fill:#000000;fill-opacity:1;stroke:none"
         x="197.496"
         y="134.881"
         id="text22"><tspan
           x="197.496"
           y="134.881"
           id="tspan20">connect</tspan></text>
    </g>
    <g
       id="g30">
      <line
         style="fill:none;stroke:#000000;stroke-width:2;stroke-opacity:1"
         x1="197.496"
         y1="33.9884"
         x2="197.496"
         y2="100.261"
         id="line26" />
      <polygon
         style="fill:#000000;fill-opacity:1;stroke:#000000;stroke-width:2;stroke-opacity:1"
         fill-rule="evenodd"
         points="197.496,100.261 202.496,97.7609 197.496,107.761 192.496,97.7609 "
         id="polygon28" />
    </g>
    <g
       id="g44">
      <path
         style="fill:#ffffff;fill-opacity:1;stroke:#000000;stroke-width:2;stroke-opacity:1"
         fill-rule="evenodd"
         d="m 142.171,247 c 22.13,-13.5 33.195,-18 55.325,-18 22.13,0 33.195,4.5 55.325,18 v 72 c -22.13,13.5 -33.195,18 -55.325,18 -22.13,0 -33.195,-4.5 -55.325,-18 z"
         id="path32" />
      <path
         style="fill:none;stroke:#000000;stroke-width:2;stroke-opacity:1"
         d="m 142.171,247 c 22.13,13.5 33.195,18 55.325,18 22.13,0 33.195,-4.5 55.325,-18"
         id="path34" />
      <text
         font-size="12.8px"
         style="font-style:normal;font-weight:normal;font-family:sans-serif;text-anchor:middle;fill:#000000;fill-opacity:1;stroke:none"
         x="197.496"
         y="279.88101"
         id="text42"><tspan
           x="197.496"
           y="279.88101"
           id="tspan36">Contar todas las</tspan><tspan
           x="197.496"
           y="295.88101"
           id="tspan38">visitas en la</tspan><tspan
           x="197.496"
           y="311.88101"
           id="tspan40">tabla &quot;visits&quot;</tspan></text>
    </g>
    <g
       id="g50">
      <line
         style="fill:none;stroke:#000000;stroke-width:2;stroke-opacity:1"
         x1="197.496"
         y1="151.967"
         x2="197.496"
         y2="219.261"
         id="line46" />
      <polygon
         style="fill:#000000;fill-opacity:1;stroke:#000000;stroke-width:2;stroke-opacity:1"
         fill-rule="evenodd"
         points="197.496,219.261 202.496,216.761 197.496,226.761 192.496,216.761 "
         id="polygon48" />
    </g>
    <g
       id="g58">
      <polygon
         style="fill:#ffffff;fill-opacity:1;stroke:#000000;stroke-width:2;stroke-opacity:1"
         fill-rule="evenodd"
         points="220.993,453 160.169,453 174,415 234.824,415 "
         id="polygon52" />
      <text
         font-size="12.8px"
         style="font-style:normal;font-weight:normal;font-family:sans-serif;text-anchor:middle;fill:#000000;fill-opacity:1;stroke:none"
         x="197.496"
         y="437.88101"
         id="text56"><tspan
           x="197.496"
           y="437.88101"
           id="tspan54">visits</tspan></text>
    </g>
    <g
       id="g64">
      <line
         style="fill:none;stroke:#000000;stroke-width:2;stroke-opacity:1"
         x1="197.496"
         y1="336.98901"
         x2="197.496"
         y2="404.26501"
         id="line60" />
      <polygon
         style="fill:#000000;fill-opacity:1;stroke:#000000;stroke-width:2;stroke-opacity:1"
         fill-rule="evenodd"
         points="197.496,404.265 202.496,401.765 197.496,411.765 192.496,401.765 "
         id="polygon62" />
    </g>
    <g
       id="g70">
      <line
         style="fill:none;stroke:#000000;stroke-width:2;stroke-opacity:1"
         x1="197.496"
         y1="454"
         x2="197.496"
         y2="520.26001"
         id="line66" />
      <polygon
         style="fill:#000000;fill-opacity:1;stroke:#000000;stroke-width:2;stroke-opacity:1"
         fill-rule="evenodd"
         points="197.496,520.26 202.496,517.76 197.496,527.76 192.496,517.76 "
         id="polygon68" />
    </g>
  </g>
</svg>
